<svg id="Layer_1" xmlns="http://www.w3.org/2000/svg" viewBox="0 0 561.5 254"><style>.st1{fill:#0071bc}.st3{fill:#ff2f00}.st5{fill:#eac36e}.st7{fill:#fcd577}.st8{fill:#a67c52}</style><path d="M372.1 254l-35.7-1.1c-3-.1-3.7-4.4-1.7-9.7l24.2-63.5c2-5.3 6.1-9.5 9-9.4l35.7 1.1c3 .1 3.7 4.4 1.7 9.7l-24.2 63.5c-2 5.3-6.1 9.5-9 9.4z" fill="gray"/><path class="st1" d="M113.5 172h-97c-6.1 0-11-4.9-11-11V11c0-6.1 4.9-11 11-11h97c6.1 0 11 4.9 11 11v150c0 6.1-5 11-11 11z"/><path d="M450.5 172h-30c-6.1 0-11-4.9-11-11V11c0-6.1 4.9-11 11-11h30c6.1 0 11 4.9 11 11v150c0 6.1-5 11-11 11z" fill="#219032"/><path class="st3" d="M208.5 172h-73c-6.1 0-11-4.9-11-11V88c0-6.1 4.9-11 11-11h73c6.1 0 11 4.9 11 11v73c0 6.1-5 11-11 11z"/><path d="M303.5 172h-73c-6.1 0-11-4.9-11-11V88c0-6.1 4.9-11 11-11h73c6.1 0 11 4.9 11 11v73c0 6.1-5 11-11 11z" fill="#ffdf00"/><path class="st3" d="M545.5 172h-73c-6.1 0-11-4.9-11-11V88c0-6.1 4.9-11 11-11h73c6.1 0 11 4.9 11 11v73c0 6.1-5 11-11 11z"/><path class="st1" d="M398.5 172h-73c-6.1 0-11-4.9-11-11V88c0-6.1 4.9-11 11-11h73c6.1 0 11 4.9 11 11v73c0 6.1-5 11-11 11z"/><path class="st5" d="M6.9 142.6h44.3v6.7H6.9zM6.9 163.1h44.3v6.7H6.9zM69.9 142.6h44.3v6.7H69.9zM69.9 163.1h44.3v6.7H69.9zM132.9 142.6h44.3v6.7h-44.3zM132.9 163.1h44.3v6.7h-44.3zM195.9 142.6h44.3v6.7h-44.3zM195.9 163.1h44.3v6.7h-44.3zM258.9 142.6h44.3v6.7h-44.3zM258.9 163.1h44.3v6.7h-44.3z"/><path fill="none" d="M356.9 149.4h52.3v13.7h-52.3z"/><path class="st5" d="M4.5 142.6h341.7v6.7H4.5zM419.9 142.6h135.3v6.7H419.9zM419.9 163.1h135.3v6.7H419.9zM4.5 163.1h341.7v6.7H4.5z"/><path class="st5" d="M447.9 142.6h44.3v6.7h-44.3zM447.9 163.1h44.3v6.7h-44.3z"/><path class="st7" d="M514.7 135.2l-5.3-5.2-5.4 5.2v38.6h10.7zM530.3 135.2l-5.4-5.2-5.3 5.2v38.6h10.7zM545.9 135.2l-5.4-5.2-5.3 5.2v38.6h10.7zM561.5 135.2l-5.4-5.2-5.3 5.2v38.6h10.7zM10.7 135.2L5.4 130 0 135.2v38.6h10.7zM26.3 135.2l-5.4-5.2-5.3 5.2v38.6h10.7zM41.9 135.2l-5.4-5.2-5.3 5.2v38.6h10.7zM57.5 135.2l-5.4-5.2-5.3 5.2v38.6h10.7zM73.7 135.2l-5.3-5.2-5.4 5.2v38.6h10.7zM89.3 135.2l-5.4-5.2-5.3 5.2v38.6h10.7zM104.9 135.2l-5.4-5.2-5.3 5.2v38.6h10.7zM120.5 135.2l-5.4-5.2-5.3 5.2v38.6h10.7zM136.7 135.2l-5.3-5.2-5.4 5.2v38.6h10.7zM152.3 135.2l-5.4-5.2-5.3 5.2v38.6h10.7zM167.9 135.2l-5.4-5.2-5.3 5.2v38.6h10.7zM183.5 135.2l-5.4-5.2-5.3 5.2v38.6h10.7zM199.7 135.2l-5.3-5.2-5.4 5.2v38.6h10.7zM215.3 135.2l-5.4-5.2-5.3 5.2v38.6h10.7zM230.9 135.2l-5.4-5.2-5.3 5.2v38.6h10.7zM246.5 135.2l-5.4-5.2-5.3 5.2v38.6h10.7zM262.7 135.2l-5.3-5.2-5.4 5.2v38.6h10.7zM278.3 135.2l-5.4-5.2-5.3 5.2v38.6h10.7zM293.9 135.2l-5.4-5.2-5.3 5.2v38.6h10.7zM309.5 135.2l-5.4-5.2-5.3 5.2v38.6h10.7zM325.7 135.2l-5.3-5.2-5.4 5.2v38.6h10.7zM341.3 135.2l-5.4-5.2-5.3 5.2v38.6h10.7zM356.9 135.2l-5.4-5.2-5.3 5.2v7.4h10.7z"/><path transform="matrix(.9984 -.05573 .05573 .9984 -8.161 19.835)" class="st7" d="M346.2 149.4h10.7v13.7h-10.7z"/><path class="st7" d="M346.2 169.9h10.7v4h-10.7zM346.2 142.6h10.7v6.7h-10.7zM346.2 163.1h10.7v6.7h-10.7zM409.2 169.9h10.7v4h-10.7zM419.9 135.2l-5.4-5.2-5.3 5.2v7.4h10.7zM409.2 149.4h10.7v13.7h-10.7zM409.2 142.6h10.7v6.7h-10.7zM409.2 163.1h10.7v6.7h-10.7zM435.5 135.2l-5.4-5.2-5.3 5.2v38.6h10.7zM451.7 135.2l-5.3-5.2-5.4 5.2v38.6h10.7zM467.3 135.2l-5.4-5.2-5.3 5.2v38.6h10.7zM482.9 135.2l-5.4-5.2-5.3 5.2v38.6h10.7zM498.5 135.2l-5.4-5.2-5.3 5.2v38.6h10.7z"/><circle class="st8" cx="556.2" cy="143.1" r="1"/><circle class="st8" cx="556.2" cy="163.5" r="1"/><circle class="st8" cx="540.5" cy="143.1" r="1"/><circle class="st8" cx="540.5" cy="163.5" r="1"/><circle class="st8" cx="524.9" cy="143.1" r="1"/><circle class="st8" cx="524.9" cy="163.5" r="1"/><circle class="st8" cx="509.3" cy="143.1" r="1"/><circle class="st8" cx="509.3" cy="163.5" r="1"/><circle class="st8" cx="52.2" cy="143.1" r="1"/><circle class="st8" cx="52.2" cy="163.5" r="1"/><circle class="st8" cx="36.5" cy="143.1" r="1"/><circle class="st8" cx="36.5" cy="163.5" r="1"/><circle class="st8" cx="20.9" cy="143.1" r="1"/><circle class="st8" cx="20.9" cy="163.5" r="1"/><circle class="st8" cx="5.3" cy="143.1" r="1"/><circle class="st8" cx="5.3" cy="163.5" r="1"/><circle class="st8" cx="115.2" cy="143.1" r="1"/><circle class="st8" cx="115.2" cy="163.5" r="1"/><circle class="st8" cx="99.5" cy="143.1" r="1"/><circle class="st8" cx="99.5" cy="163.5" r="1"/><circle class="st8" cx="83.9" cy="143.1" r="1"/><circle class="st8" cx="83.9" cy="163.5" r="1"/><circle class="st8" cx="68.3" cy="143.1" r="1"/><circle class="st8" cx="68.3" cy="163.5" r="1"/><circle class="st8" cx="178.2" cy="143.1" r="1"/><circle class="st8" cx="178.2" cy="163.5" r="1"/><circle class="st8" cx="162.5" cy="143.1" r="1"/><circle class="st8" cx="162.5" cy="163.5" r="1"/><circle class="st8" cx="146.9" cy="143.1" r="1"/><circle class="st8" cx="146.9" cy="163.5" r="1"/><circle class="st8" cx="131.3" cy="143.1" r="1"/><circle class="st8" cx="131.3" cy="163.5" r="1"/><circle class="st8" cx="241.2" cy="143.1" r="1"/><circle class="st8" cx="241.2" cy="163.5" r="1"/><circle class="st8" cx="225.5" cy="143.1" r="1"/><circle class="st8" cx="225.5" cy="163.5" r="1"/><circle class="st8" cx="209.9" cy="143.1" r="1"/><circle class="st8" cx="209.9" cy="163.5" r="1"/><circle class="st8" cx="194.3" cy="143.1" r="1"/><circle class="st8" cx="194.3" cy="163.5" r="1"/><circle class="st8" cx="304.2" cy="143.1" r="1"/><circle class="st8" cx="304.2" cy="163.5" r="1"/><circle class="st8" cx="288.5" cy="143.1" r="1"/><circle class="st8" cx="288.5" cy="163.5" r="1"/><circle class="st8" cx="272.9" cy="143.1" r="1"/><circle class="st8" cx="272.9" cy="163.5" r="1"/><circle class="st8" cx="257.3" cy="143.1" r="1"/><circle class="st8" cx="257.3" cy="163.5" r="1"/><circle class="st8" cx="351.5" cy="143.1" r="1"/><circle class="st8" cx="351.5" cy="163.5" r="1"/><circle class="st8" cx="335.9" cy="143.1" r="1"/><circle class="st8" cx="335.9" cy="163.5" r="1"/><circle class="st8" cx="320.3" cy="143.1" r="1"/><circle class="st8" cx="320.3" cy="163.5" r="1"/><circle class="st8" cx="430.2" cy="143.1" r="1"/><circle class="st8" cx="430.2" cy="163.5" r="1"/><circle class="st8" cx="414.5" cy="143.1" r="1"/><circle class="st8" cx="414.5" cy="163.5" r="1"/><circle class="st8" cx="493.2" cy="143.1" r="1"/><circle class="st8" cx="493.2" cy="163.5" r="1"/><circle class="st8" cx="477.5" cy="143.1" r="1"/><circle class="st8" cx="477.5" cy="163.5" r="1"/><circle class="st8" cx="461.9" cy="143.1" r="1"/><circle class="st8" cx="461.9" cy="163.5" r="1"/><circle class="st8" cx="446.3" cy="143.1" r="1"/><circle class="st8" cx="446.3" cy="163.5" r="1"/></svg>