<svg id="Layer_1" xmlns="http://www.w3.org/2000/svg" viewBox="0 0 469.3 234.7"><style>.st2{fill:#911fff}.st3{fill:#6b00d4}.st5{fill:#eff2ff}</style><path d="M469.3 149.3c0-47.1-105.1-85.3-234.7-85.3C105.1 64 0 102.2 0 149.3s105.1 85.3 234.7 85.3c129.6.1 234.6-38.1 234.6-85.3z" fill="#d6deff"/><path d="M469.3 149.3c0-47.1-105.1-85.3-234.7-85.3C105.1 64 0 102.2 0 149.3s105.1 85.3 234.7 85.3c129.6.1 234.6-38.1 234.6-85.3z" fill="#5100aa"/><path class="st2" d="M448 128c0-35.3-95.5-64-213.3-64S21.3 92.7 21.3 128s95.5 64 213.3 64S448 163.3 448 128z"/><path class="st3" d="M426.7 138.7c0-29.5-71.6-53.3-160-53.3s-160 23.9-160 53.3c0 29.5 71.6 53.3 160 53.3 88.3 0 160-23.9 160-53.3z"/><path class="st2" d="M106.7 128c0-70.7 57.3-128 128-128s128 57.3 128 128c0 0-42.7 21.3-128 21.3-85.4 0-128-21.3-128-21.3z"/><path class="st3" d="M232.8 30.9c-6.9-12.6-30.8-12.7-53.3-.3C157 43 144.4 63.3 151.3 75.9c6.9 12.6 30.8 12.7 53.3.3 22.5-12.5 35.1-32.8 28.2-45.3z"/><path d="M187.6 25.8c-7.2-7.2-20.6-5.5-29.9 3.9s-11 22.7-3.8 29.9c7.2 7.2 20.6 5.5 29.9-3.9s10.9-22.7 3.8-29.9z" fill="#b56aff"/><path class="st5" d="M170.7 85.3c0 11.8-9.6 21.3-21.3 21.3-11.8 0-21.3-9.6-21.3-21.3 0-11.8 9.6-21.3 21.3-21.3 11.7 0 21.3 9.6 21.3 21.3zM256 106.7c0 11.8-9.6 21.3-21.3 21.3-11.8 0-21.3-9.6-21.3-21.3 0-11.8 9.6-21.3 21.3-21.3 11.7-.1 21.3 9.5 21.3 21.3zM341.3 85.3c0 11.8-9.6 21.3-21.3 21.3s-21.3-9.6-21.3-21.3c0-11.8 9.6-21.3 21.3-21.3s21.3 9.6 21.3 21.3z"/></svg>